<svg xmlns="http://www.w3.org/2000/svg" width="24" height="24" viewBox="0 0 24 24">
  <!-- Gear/cog icon -->
  <path d="M12 8 C9.8 8 8 9.8 8 12 C8 14.2 9.8 16 12 16 C14.2 16 16 14.2 16 12 C16 9.8 14.2 8 12 8 Z" fill="none" stroke="#546E7A" stroke-width="1.5"/>
  <path d="M10.5 2 L13.5 2 L14 4.5 L16.5 5.5 L18.5 4 L20.5 6 L19 8 L20 10.5 L22.5 11 L22.5 13.5 L20 14 L19 16.5 L20.5 18.5 L18.5 20.5 L16.5 19 L14 20 L13.5 22.5 L10.5 22.5 L10 20 L7.5 19 L5.5 20.5 L3.5 18.5 L5 16.5 L4 14 L1.5 13.5 L1.5 10.5 L4 10 L5 7.5 L3.5 5.5 L5.5 3.5 L7.5 5 L10 4 Z" fill="none" stroke="#546E7A" stroke-width="1.5" stroke-linejoin="round"/>
</svg>
